<?xml version="1.0" encoding="UTF-8"?>
<svg xmlns="http://www.w3.org/2000/svg" data-name="Layer 1" viewBox="0 0 26 26" width="current" height="current" fill="current" className="header_side_icon"><path d="m12,0C5.383,0,0,5.383,0,12s5.383,12,12,12h12v-12C24,5.383,18.617,0,12,0Zm10,22h-10c-5.514,0-10-4.486-10-10S6.486,2,12,2s10,4.486,10,10v10Zm-8.5-10c0,.828-.672,1.5-1.5,1.5s-1.5-.672-1.5-1.5.672-1.5,1.5-1.5,1.5.672,1.5,1.5Zm5,0c0,.828-.672,1.5-1.5,1.5s-1.5-.672-1.5-1.5.672-1.5,1.5-1.5,1.5.672,1.5,1.5Zm-10,0c0,.828-.672,1.5-1.5,1.5s-1.5-.672-1.5-1.5.672-1.5,1.5-1.5,1.5.672,1.5,1.5Z" fill="currentColor"/></svg>
