<?xml version="1.0" encoding="utf-8"?>
<!-- Generator: Adobe Illustrator 16.0.0, SVG Export Plug-In . SVG Version: 6.00 Build 0)  -->
<!DOCTYPE svg PUBLIC "-//W3C//DTD SVG 1.1//EN" "http://www.w3.org/Graphics/SVG/1.1/DTD/svg11.dtd">
<svg version="1.1" id="레이어_1" xmlns="http://www.w3.org/2000/svg" xmlns:xlink="http://www.w3.org/1999/xlink" x="0px"
	 y="0px" width="595.28px" height="841.89px" viewBox="0 0 595.28 841.89" enable-background="new 0 0 595.28 841.89"
	 xml:space="preserve">
<g>
	<linearGradient id="SVGID_1_" gradientUnits="userSpaceOnUse" x1="169.2671" y1="447.9746" x2="425.6198" y2="447.9746">
		<stop  offset="0" style="stop-color:#629D42"/>
		<stop  offset="1" style="stop-color:#7CBF4B"/>
	</linearGradient>
	<polygon fill="url(#SVGID_1_)" points="294.163,434.176 247.653,432.853 244.94,444.634 267.25,444.701 261.501,454.298 
		310.492,463.096 315.327,452.489 282.406,446.438 	"/>
	<linearGradient id="SVGID_2_" gradientUnits="userSpaceOnUse" x1="169.2671" y1="411.7754" x2="425.6177" y2="411.7754">
		<stop  offset="0" style="stop-color:#629D42"/>
		<stop  offset="1" style="stop-color:#7CBF4B"/>
	</linearGradient>
	<polygon fill="url(#SVGID_2_)" points="203.149,407.029 225.441,407.029 227.752,394.592 208.849,394.592 208.85,394.591 
		194.581,394.591 205.144,378.056 188.671,378.056 168.77,407.044 187.783,407.044 168.738,445.495 174.39,445.495 185.521,445.495 
		218.092,445.495 220.209,434.553 190.535,434.553 194.744,425.369 222.011,425.369 223.922,415.004 199.494,415.004 	"/>
	<linearGradient id="SVGID_3_" gradientUnits="userSpaceOnUse" x1="169.2651" y1="419.9053" x2="425.6243" y2="419.9053">
		<stop  offset="0" style="stop-color:#629D42"/>
		<stop  offset="1" style="stop-color:#7CBF4B"/>
	</linearGradient>
	<polygon fill="url(#SVGID_3_)" points="238.133,394.449 234.131,414.982 227.201,414.982 225.437,425.379 232.105,425.379 
		228.21,445.361 240.111,445.361 250.035,394.449 	"/>
	<linearGradient id="SVGID_4_" gradientUnits="userSpaceOnUse" x1="169.269" y1="420.0415" x2="425.6193" y2="420.0415">
		<stop  offset="0" style="stop-color:#629D42"/>
		<stop  offset="1" style="stop-color:#7CBF4B"/>
	</linearGradient>
	<polygon fill="url(#SVGID_4_)" points="309.766,394.427 309.764,394.469 306.517,394.482 298.692,445.656 305.507,445.628 
		305.506,445.656 342.977,445.656 343.829,435.292 314.877,435.292 316.211,425.966 344.59,425.966 345.441,415.602 
		317.693,415.602 319.237,404.794 346.739,404.794 347.591,394.427 	"/>
	<linearGradient id="SVGID_5_" gradientUnits="userSpaceOnUse" x1="169.2788" y1="419.9053" x2="425.6155" y2="419.9053">
		<stop  offset="0" style="stop-color:#629D42"/>
		<stop  offset="1" style="stop-color:#7CBF4B"/>
	</linearGradient>
	<polygon fill="url(#SVGID_5_)" points="347.676,445.361 359.576,445.361 364.307,394.449 352.405,394.449 	"/>
	<linearGradient id="SVGID_6_" gradientUnits="userSpaceOnUse" x1="169.2539" y1="419.9053" x2="425.6207" y2="419.9053">
		<stop  offset="0" style="stop-color:#629D42"/>
		<stop  offset="1" style="stop-color:#7CBF4B"/>
	</linearGradient>
	<polygon fill="url(#SVGID_6_)" points="414.789,394.449 410.059,445.361 421.96,445.361 426.691,394.449 	"/>
	<linearGradient id="SVGID_7_" gradientUnits="userSpaceOnUse" x1="169.2637" y1="419.9053" x2="425.6202" y2="419.9053">
		<stop  offset="0" style="stop-color:#629D42"/>
		<stop  offset="1" style="stop-color:#7CBF4B"/>
	</linearGradient>
	<path fill="url(#SVGID_7_)" d="M400.615,394.449l-1.965,21.152h-19.063l1.965-21.152H369.65l-4.73,50.912h5.584h6.318h19.062
		h10.905h0.996l4.73-50.912H400.615z M396.848,434.996h-19.063l0.84-9.03h19.063L396.848,434.996z"/>
	<linearGradient id="SVGID_8_" gradientUnits="userSpaceOnUse" x1="169.2676" y1="407.0903" x2="425.6182" y2="407.0903">
		<stop  offset="0" style="stop-color:#629D42"/>
		<stop  offset="1" style="stop-color:#7CBF4B"/>
	</linearGradient>
	<polygon fill="url(#SVGID_8_)" points="299.061,411.754 299.061,411.754 261.649,411.858 261.992,410.154 299.33,410.047 
		300.277,404.059 300.277,404.057 263.02,404.162 263.254,402.664 300.514,402.561 301.805,394.396 255.079,394.527 250.07,419.784 
		297.813,419.648 	"/>
	<linearGradient id="SVGID_9_" gradientUnits="userSpaceOnUse" x1="169.2671" y1="426.5781" x2="425.6195" y2="426.5781">
		<stop  offset="0" style="stop-color:#629D42"/>
		<stop  offset="1" style="stop-color:#7CBF4B"/>
	</linearGradient>
	<polygon fill="url(#SVGID_9_)" points="248.078,430.954 296.271,430.704 297.615,422.203 249.709,422.454 	"/>
</g>
</svg>
