<?xml version="1.0" encoding="utf-8"?>
<!-- Generator: Adobe Illustrator 16.0.0, SVG Export Plug-In . SVG Version: 6.00 Build 0)  -->
<!DOCTYPE svg PUBLIC "-//W3C//DTD SVG 1.1//EN" "http://www.w3.org/Graphics/SVG/1.1/DTD/svg11.dtd">
<svg version="1.1" id="레이어_1" xmlns="http://www.w3.org/2000/svg" xmlns:xlink="http://www.w3.org/1999/xlink" x="0px"
	 y="0px" width="96px" height="30px" viewBox="0 0 96 30" enable-background="new 0 0 96 30" xml:space="preserve">
<g>
	<linearGradient id="SVGID_1_" gradientUnits="userSpaceOnUse" x1="4.0669" y1="24.6665" x2="93.7662" y2="24.6665">
		<stop  offset="0" style="stop-color:#629D42"/>
		<stop  offset="1" style="stop-color:#7CBF4B"/>
	</linearGradient>
	<polygon fill="url(#SVGID_1_)" points="47.77,19.798 31.496,19.332 30.545,23.488 38.352,23.511 36.341,26.896 53.483,30 
		55.174,26.259 43.656,24.124 	"/>
	<linearGradient id="SVGID_2_" gradientUnits="userSpaceOnUse" x1="4.0679" y1="11.896" x2="93.7644" y2="11.896">
		<stop  offset="0" style="stop-color:#629D42"/>
		<stop  offset="1" style="stop-color:#7CBF4B"/>
	</linearGradient>
	<polygon fill="url(#SVGID_2_)" points="15.923,10.221 23.723,10.221 24.532,5.834 17.917,5.834 17.918,5.833 12.925,5.833 
		16.621,0 10.857,0 3.894,10.227 10.546,10.227 3.883,23.792 5.86,23.792 9.754,23.792 21.152,23.792 21.893,19.931 11.51,19.931 
		12.982,16.691 22.523,16.691 23.192,13.035 14.645,13.035 	"/>
	<linearGradient id="SVGID_3_" gradientUnits="userSpaceOnUse" x1="4.0688" y1="14.7637" x2="93.7625" y2="14.7637">
		<stop  offset="0" style="stop-color:#629D42"/>
		<stop  offset="1" style="stop-color:#7CBF4B"/>
	</linearGradient>
	<polygon fill="url(#SVGID_3_)" points="28.164,5.784 26.764,13.027 24.339,13.027 23.722,16.695 26.055,16.695 24.692,23.744 
		28.856,23.744 32.328,5.784 	"/>
	<linearGradient id="SVGID_4_" gradientUnits="userSpaceOnUse" x1="4.0654" y1="14.8125" x2="93.7682" y2="14.8125">
		<stop  offset="0" style="stop-color:#629D42"/>
		<stop  offset="1" style="stop-color:#7CBF4B"/>
	</linearGradient>
	<polygon fill="url(#SVGID_4_)" points="53.229,5.776 53.229,5.791 52.092,5.795 49.354,23.849 51.739,23.839 51.738,23.849 
		64.85,23.849 65.147,20.192 55.017,20.192 55.484,16.902 65.414,16.902 65.711,13.246 56.002,13.246 56.542,9.433 66.166,9.433 
		66.464,5.776 	"/>
	<linearGradient id="SVGID_5_" gradientUnits="userSpaceOnUse" x1="4.0703" y1="14.7637" x2="93.7656" y2="14.7637">
		<stop  offset="0" style="stop-color:#629D42"/>
		<stop  offset="1" style="stop-color:#7CBF4B"/>
	</linearGradient>
	<polygon fill="url(#SVGID_5_)" points="66.494,23.744 70.658,23.744 72.313,5.784 68.148,5.784 	"/>
	<linearGradient id="SVGID_6_" gradientUnits="userSpaceOnUse" x1="4.0571" y1="14.7637" x2="93.7674" y2="14.7637">
		<stop  offset="0" style="stop-color:#629D42"/>
		<stop  offset="1" style="stop-color:#7CBF4B"/>
	</linearGradient>
	<polygon fill="url(#SVGID_6_)" points="89.977,5.784 88.322,23.744 92.486,23.744 94.142,5.784 	"/>
	<linearGradient id="SVGID_7_" gradientUnits="userSpaceOnUse" x1="4.0693" y1="14.7637" x2="93.7662" y2="14.7637">
		<stop  offset="0" style="stop-color:#629D42"/>
		<stop  offset="1" style="stop-color:#7CBF4B"/>
	</linearGradient>
	<path fill="url(#SVGID_7_)" d="M85.017,5.784l-0.687,7.462H77.66l0.688-7.462h-4.165l-1.654,17.96h1.953h2.211h6.67h3.815h0.349
		l1.655-17.96H85.017z M83.7,20.087h-6.671l0.295-3.186h6.669L83.7,20.087z"/>
	<linearGradient id="SVGID_8_" gradientUnits="userSpaceOnUse" x1="4.0679" y1="10.2427" x2="93.7659" y2="10.2427">
		<stop  offset="0" style="stop-color:#629D42"/>
		<stop  offset="1" style="stop-color:#7CBF4B"/>
	</linearGradient>
	<polygon fill="url(#SVGID_8_)" points="49.483,11.888 49.483,11.888 36.393,11.925 36.512,11.324 49.578,11.287 49.909,9.173 
		49.909,9.173 36.873,9.21 36.954,8.682 49.991,8.646 50.443,5.765 34.094,5.812 32.341,14.721 49.046,14.673 	"/>
	<linearGradient id="SVGID_9_" gradientUnits="userSpaceOnUse" x1="4.0664" y1="17.1187" x2="93.7674" y2="17.1187">
		<stop  offset="0" style="stop-color:#629D42"/>
		<stop  offset="1" style="stop-color:#7CBF4B"/>
	</linearGradient>
	<polygon fill="url(#SVGID_9_)" points="31.644,18.663 48.507,18.574 48.977,15.575 32.214,15.663 	"/>
</g>
</svg>
