<?xml version="1.0" encoding="utf-8"?>
<!-- Generator: Adobe Illustrator 16.0.0, SVG Export Plug-In . SVG Version: 6.00 Build 0)  -->
<!DOCTYPE svg PUBLIC "-//W3C//DTD SVG 1.1//EN" "http://www.w3.org/Graphics/SVG/1.1/DTD/svg11.dtd">
<svg version="1.1" id="레이어_1" xmlns="http://www.w3.org/2000/svg" xmlns:xlink="http://www.w3.org/1999/xlink" x="0px"
	 y="0px" width="595.28px" height="841.89px" viewBox="0 0 595.28 841.89" enable-background="new 0 0 595.28 841.89"
	 xml:space="preserve">
<polygon points="382.991,400.076 332.615,400.068 333.881,388.187 384.258,388.194 "/>
<polygon points="417.133,443.193 391.766,443.189 393.032,431.309 420.946,431.313 "/>
<polygon points="360.611,442.006 346.057,442.004 350.881,396.739 365.436,396.741 "/>
<polygon points="405.133,443.123 390.299,443.121 389.443,388.136 404.277,388.138 "/>
<polygon points="417.133,443.193 403.669,438.271 424.789,387.961 438.254,392.884 "/>
<polygon points="257.333,436.013 253.872,450.746 282.333,450.834 277.167,462.834 337.5,473.834 348.091,460.57 305.334,451 
	318.666,435.667 "/>
<polygon points="231.946,388.168 207.829,388.168 207.83,388.167 189.626,388.167 203.102,367.488 182.088,367.488 156.701,403.739 
	180.956,403.739 156.659,451.822 178.068,451.822 200.559,403.719 228.997,403.719 "/>
<polygon points="219.622,451.822 222.322,438.141 166.888,438.141 163.87,451.822 "/>
<polygon points="224.622,426.654 227.059,413.694 178.805,413.694 176.818,426.654 "/>
<polygon points="228.991,426.666 231.243,413.667 241.709,413.667 242.376,426.666 "/>
<polygon points="247.711,451.654 232.529,451.654 245.189,387.989 260.372,387.989 "/>
<g>
	<g>
		<polygon points="277.235,398.262 324.77,398.132 326.416,387.919 266.807,388.084 260.417,419.671 321.322,419.501 
			322.914,409.629 275.188,409.757 275.625,407.625 323.26,407.494 324.467,400.003 276.938,400.132 		"/>
		<polygon points="275.188,409.757 322.914,409.629 322.915,409.626 		"/>
		<polygon points="276.938,400.132 324.467,400.003 324.467,400.001 		"/>
	</g>
	<polygon points="257.875,433.64 319.356,433.326 321.07,422.697 259.957,423.009 	"/>
</g>
</svg>
