<?xml version="1.0" encoding="utf-8"?>
<!-- Generator: Adobe Illustrator 16.0.0, SVG Export Plug-In . SVG Version: 6.00 Build 0)  -->
<!DOCTYPE svg PUBLIC "-//W3C//DTD SVG 1.1//EN" "http://www.w3.org/Graphics/SVG/1.1/DTD/svg11.dtd">
<svg version="1.1" id="레이어_1" xmlns="http://www.w3.org/2000/svg" xmlns:xlink="http://www.w3.org/1999/xlink" x="0"
	 y="0" width="96" height="26" viewBox="0 0 595.28 841.89"
	 xml:space="preserve">
<rect x="0" y="0" width="96" height="26"/>
<g>
	<polygon fill="#FFFFFF" points="232.234,437.483 228.772,452.217 257.234,452.305 249.901,464.305 312.401,475.305 
		318.567,462.041 276.567,454.473 291.567,439.14 	"/>
	<polygon fill="#FFFFFF" points="206.847,389.639 182.73,389.639 182.731,389.637 164.527,389.637 178.003,368.959 156.989,368.959 
		131.602,405.209 155.856,405.209 131.561,453.293 152.97,453.293 175.46,405.19 203.897,405.19 	"/>
	<polygon fill="#FFFFFF" points="194.522,453.293 197.223,439.611 141.789,439.611 138.771,453.293 	"/>
	<polygon fill="#FFFFFF" points="199.522,428.125 201.96,415.165 153.706,415.165 151.72,428.125 	"/>
	<polygon fill="#FFFFFF" points="203.893,428.137 206.144,415.137 216.61,415.137 217.277,428.137 	"/>
	<polygon fill="#FFFFFF" points="222.612,453.125 207.43,453.125 220.09,389.459 235.272,389.459 	"/>
	<g>
		<polygon fill="#FFFFFF" points="297.345,453.496 316.114,453.42 325.447,389.434 307.327,389.499 		"/>
		<polygon fill="#FFFFFF" points="353.841,453.496 354.927,440.535 306.673,440.535 306.038,453.496 		"/>
		<polygon fill="#FFFFFF" points="355.899,428.871 356.985,415.911 308.731,415.911 308.097,428.871 		"/>
		<polygon fill="#FFFFFF" points="358.64,402.395 359.727,389.434 311.473,389.434 310.837,402.395 		"/>
		<polygon fill="#FFFFFF" points="375.017,453.125 359.835,453.125 365.87,389.459 381.052,389.459 		"/>
	</g>
	<g>
		<polygon fill="#FFFFFF" points="445.454,389.459 439.419,453.125 454.601,453.125 460.636,389.459 		"/>
		<path fill="#FFFFFF" d="M427.37,389.459l-2.507,26.451h-24.317l2.507-26.451H387.87l-6.035,63.666h7.123h8.06h24.317h13.912h1.271
			l6.035-63.666H427.37z M398.246,440.164l1.071-11.293h24.316l-1.07,11.293H398.246z"/>
	</g>
	<g>
		<g>
			<polygon fill="#FFFFFF" points="252.137,399.733 299.67,399.604 301.317,389.391 241.708,389.555 235.317,421.143 
				296.224,420.973 297.815,411.1 250.089,411.229 250.526,409.096 298.16,408.965 299.368,401.475 251.839,401.604 			"/>
			<polygon fill="#FFFFFF" points="250.089,411.229 297.815,411.1 297.816,411.098 			"/>
			<polygon fill="#FFFFFF" points="251.839,401.604 299.368,401.475 299.368,401.473 			"/>
		</g>
		<polygon fill="#FFFFFF" points="232.776,435.11 294.258,434.797 295.972,424.168 234.857,424.479 		"/>
	</g>
</g>
</svg>
